<svg xmlns="http://www.w3.org/2000/svg" viewBox="0 0 11.38 22.38">
<title>View previous week</title>
<path d="M50.95,24.52s-.23-.12-.6-.37-.91-.59-1.51-1.05-1.29-1-2-1.63c-.35-.32-.72-.62-1.07-1l-1.08-1c-.69-.72-1.39-1.44-2-2.15s-1.14-1.42-1.62-2-.8-1.14-1.06-1.5-.37-.6-.37-.6l.07-.07,5.69,5.62L51,24.45Z" transform="translate(-39.63 -2.13)"/><path d="M39.63,13.45s.12-.23.37-.6.59-.91,1.05-1.51,1-1.29,1.63-2c.32-.35.62-.72,1-1.07l1-1.08c.72-.69,1.44-1.39,2.15-2s1.42-1.14,2-1.62,1.14-.8,1.5-1.06.6-.37.6-.37L51,2.2,45.4,7.9l-5.69,5.62Z" transform="translate(-39.63 -2.13)"/></svg>