<svg xmlns="http://www.w3.org/2000/svg" viewBox="0 0 11.38 22.38">
<title>View next week</title>
<path d="M41.32,3.24s.23.12.6.37.91.59,1.51,1.05,1.29,1,2,1.63c.35.32.72.62,1.07,1l1.08,1c.69.72,1.39,1.44,2,2.15s1.14,1.42,1.62,2S52,13.6,52.26,14s.37.6.37.6l-.07.07L46.87,9,41.25,3.32Z" transform="translate(-41.25 -3.24)"/><path d="M52.63,14.32s-.12.23-.37.6-.59.91-1.05,1.51-1,1.29-1.63,2c-.32.35-.62.72-1,1.07l-1,1.08c-.72.69-1.44,1.39-2.15,2s-1.42,1.14-2,1.62-1.14.8-1.5,1.06-.6.37-.6.37l-.07-.07,5.62-5.69,5.69-5.62Z" transform="translate(-41.25 -3.24)"/></svg>